<svg width="16" height="20" viewBox="0 0 16 20" fill="none" xmlns="http://www.w3.org/2000/svg">
<path d="M1 17V4.2C1 3.0799 1 2.51984 1.21799 2.09202C1.40973 1.71569 1.71569 1.40973 2.09202 1.21799C2.51984 1 3.0799 1 4.2 1H11.8C12.9201 1 13.4802 1 13.908 1.21799C14.2843 1.40973 14.5903 1.71569 14.782 2.09202C15 2.51984 15 3.0799 15 4.2V15H3C1.89543 15 1 15.8954 1 17ZM1 17C1 18.1046 1.89543 19 3 19H15M14 15V19M11 11.5C10.7164 10.3589 9.481 9.5 8 9.5C6.519 9.5 5.28364 10.3589 5 11.5M8 5.5H8.01M9 5.5C9 6.05228 8.55228 6.5 8 6.5C7.44772 6.5 7 6.05228 7 5.5C7 4.94772 7.44772 4.5 8 4.5C8.55228 4.5 9 4.94772 9 5.5Z" stroke="white" stroke-width="1.5" stroke-linecap="round" stroke-linejoin="round"/>
</svg>
