<svg width="20" height="22" viewBox="0 0 20 22" fill="none" xmlns="http://www.w3.org/2000/svg">
<path d="M4 16.7083C2.15875 15.0604 1 12.6655 1 10C1 5.02944 5.02944 1 10 1C14.9706 1 19 5.02944 19 10C19 12.6655 17.8412 15.0604 16 16.7083M5.80238 12.7177C5.29479 11.9353 5 11.0021 5 10C5 7.23858 7.23858 5 10 5C12.7614 5 15 7.23858 15 10C15 11.0008 14.706 11.9329 14.1996 12.7147M10 21C8.89543 21 8 20.1046 8 19V17C8 15.8954 8.89543 15 10 15C11.1046 15 12 15.8954 12 17V19C12 20.1046 11.1046 21 10 21ZM11 10C11 10.5523 10.5523 11 10 11C9.44772 11 9 10.5523 9 10C9 9.44772 9.44772 9 10 9C10.5523 9 11 9.44772 11 10Z" stroke="#A4A9B2" stroke-width="2" stroke-linecap="round" stroke-linejoin="round"/>
</svg>
