<svg width="20" height="20" viewBox="0 0 20 20" fill="none" xmlns="http://www.w3.org/2000/svg">
<path d="M12 14H15.8C16.9201 14 17.4802 14 17.908 13.782C18.2843 13.5903 18.5903 13.2843 18.782 12.908C19 12.4802 19 11.9201 19 10.8V4.2C19 3.0799 19 2.51984 18.782 2.09202C18.5903 1.71569 18.2843 1.40973 17.908 1.21799C17.4802 1 16.9201 1 15.8 1H7.2C6.07989 1 5.51984 1 5.09202 1.21799C4.71569 1.40973 4.40973 1.71569 4.21799 2.09202C4.01338 2.49359 4.00082 3.01165 4.00005 4M16 4L11 9L8 6M16 4V7M16 4H13M7 10C7 11.1046 6.10457 12 5 12C3.89543 12 3 11.1046 3 10C3 8.89543 3.89543 8 5 8C6.10457 8 7 8.89543 7 10ZM5 15C5.92997 15 6.39496 15 6.77646 15.1022C7.81173 15.3796 8.62038 16.1883 8.89778 17.2235C9 17.605 9 18.07 9 19H1C1 18.07 1 17.605 1.10222 17.2235C1.37962 16.1883 2.18827 15.3796 3.22354 15.1022C3.60504 15 4.07003 15 5 15Z" stroke="white" stroke-width="1.5" stroke-linecap="round" stroke-linejoin="round"/>
</svg>
