<svg width="20" height="18" viewBox="0 0 20 18" fill="none" xmlns="http://www.w3.org/2000/svg">
<path d="M16 10H14M16 5H8M16 13H14M8.2 17H15.8C16.9201 17 17.4802 17 17.908 16.782C18.2843 16.5903 18.5903 16.2843 18.782 15.908C19 15.4802 19 14.9201 19 13.8V4.2C19 3.0799 19 2.51984 18.782 2.09202C18.5903 1.71569 18.2843 1.40973 17.908 1.21799C17.4802 1 16.9201 1 15.8 1H8.2C7.07989 1 6.51984 1 6.09202 1.21799C5.71569 1.40973 5.40973 1.71569 5.21799 2.09202C5 2.51984 5 3.07989 5 4.2V13.8C5 14.9201 5 15.4802 5.21799 15.908C5.40973 16.2843 5.71569 16.5903 6.09202 16.782C6.51984 17 7.07989 17 8.2 17ZM11 11.5C11 12.3284 10.3284 13 9.5 13C8.67157 13 8 12.3284 8 11.5C8 10.6716 8.67157 10 9.5 10C10.3284 10 11 10.6716 11 11.5ZM3 17C1.89543 17 1 16.1046 1 15V3C1 1.89543 1.89543 1 3 1C4.10457 1 5 1.89543 5 3V15C5 16.1046 4.10457 17 3 17Z" stroke="white" stroke-width="1.5" stroke-linecap="round" stroke-linejoin="round"/>
</svg>
